<?xml version="1.0" encoding="utf-8"?>
<!-- Generator: Adobe Illustrator 13.0.0, SVG Export Plug-In . SVG Version: 6.00 Build 14948)  -->
<!DOCTYPE svg PUBLIC "-//W3C//DTD SVG 1.1//EN" "http://www.w3.org/Graphics/SVG/1.1/DTD/svg11.dtd">
<svg version="1.1" id="Layer_1" xmlns="http://www.w3.org/2000/svg" xmlns:xlink="http://www.w3.org/1999/xlink" x="0px" y="0px"
	 width="22px" height="19px" viewBox="0 0 22 19" enable-background="new 0 0 22 19" xml:space="preserve">
<g>
	<g>
		<g>
			<path fill="#FFFFFF" d="M6.133,11.158L2.094,6.353l4.039-4.806C6.459,1.16,6.42,0.57,6.047,0.231
				c-0.375-0.34-0.942-0.3-1.27,0.088l-4.555,5.42c-0.296,0.353-0.296,0.877,0,1.229l4.555,5.42
				c0.179,0.211,0.427,0.318,0.678,0.318c0.21,0,0.42-0.076,0.591-0.23C6.42,12.137,6.459,11.547,6.133,11.158z"/>
		</g>
	</g>
	<g>
		<g>
			<path fill="#FFFFFF" d="M15.466,5.419H0.899C0.403,5.419,0,5.837,0,6.353C0,6.87,0.403,7.289,0.899,7.289h14.567
				c2.611,0,4.736,2.207,4.736,4.922c0,2.713-2.125,4.92-4.736,4.92H2.098c-0.497,0-0.899,0.418-0.899,0.936
				C1.199,18.582,1.602,19,2.098,19h13.368C19.068,19,22,15.953,22,12.211C22,8.465,19.069,5.419,15.466,5.419z"/>
		</g>
	</g>
</g>
</svg>
