<?xml version="1.0" encoding="utf-8"?>
<!-- Generator: Adobe Illustrator 13.0.0, SVG Export Plug-In . SVG Version: 6.00 Build 14948)  -->
<!DOCTYPE svg PUBLIC "-//W3C//DTD SVG 1.1//EN" "http://www.w3.org/Graphics/SVG/1.1/DTD/svg11.dtd">
<svg version="1.1" id="Layer_1" xmlns="http://www.w3.org/2000/svg" xmlns:xlink="http://www.w3.org/1999/xlink" x="0px" y="0px"
	 width="24.777px" height="18.45px" viewBox="0 0 24.777 18.45" enable-background="new 0 0 24.777 18.45" xml:space="preserve">
<g>
	<rect x="1.891" y="15.989" fill="#FFFFFF" width="21.281" height="2.461"/>
	<path fill="#FFFFFF" d="M23.623,10.16c-0.227,0-0.447-0.068-0.641-0.195l-2.904-1.954c-0.318-0.213-0.51-0.57-0.51-0.954V2.922
		h-1.504v1.47c0,0.433-0.238,0.826-0.625,1.027c-0.164,0.082-0.346,0.125-0.525,0.125c-0.244,0-0.475-0.074-0.672-0.216
		l-3.861-2.765L1.813,9.952C1.62,10.089,1.391,10.16,1.156,10.16c-0.377,0-0.732-0.184-0.947-0.493
		c-0.177-0.25-0.245-0.556-0.189-0.859c0.053-0.304,0.222-0.568,0.475-0.743l11.234-7.856C11.923,0.071,12.152,0,12.388,0
		c0.243,0,0.475,0.073,0.67,0.215L15.76,2.15V1.769c0-0.635,0.518-1.152,1.152-1.152h3.809c0.637,0,1.152,0.518,1.152,1.152v4.673
		l2.395,1.61c0.256,0.171,0.428,0.431,0.488,0.734c0.061,0.302-0.002,0.608-0.176,0.864C24.367,9.969,24.008,10.16,23.623,10.16
		L23.623,10.16z"/>
</g>
</svg>
