<?xml version="1.0" encoding="utf-8"?>
<!-- Generator: Adobe Illustrator 13.0.0, SVG Export Plug-In . SVG Version: 6.00 Build 14948)  -->
<!DOCTYPE svg PUBLIC "-//W3C//DTD SVG 1.1//EN" "http://www.w3.org/Graphics/SVG/1.1/DTD/svg11.dtd">
<svg version="1.1" id="Layer_1" xmlns="http://www.w3.org/2000/svg" xmlns:xlink="http://www.w3.org/1999/xlink" x="0px" y="0px"
	 width="18.619px" height="18.554px" viewBox="0 0 18.619 18.554" enable-background="new 0 0 18.619 18.554" xml:space="preserve">
<g>
	<g>
		<path fill="#FFFFFF" d="M0,8.045C0.002,3.603,3.603,0.003,8.045,0l0,0c4.442,0.003,8.042,3.603,8.042,8.045l0,0
			c0,4.442-3.6,8.043-8.042,8.043l0,0C3.603,16.088,0.002,12.487,0,8.045L0,8.045z M2.5,8.045c0.007,3.061,2.484,5.538,5.546,5.543
			l0,0c3.061-0.005,5.538-2.482,5.545-5.543l0,0C13.583,4.983,11.106,2.507,8.045,2.5l0,0C4.984,2.507,2.506,4.983,2.5,8.045
			L2.5,8.045z"/>
	</g>
	<path fill="#FFFFFF" d="M16.53,18.232c0.453,0.452,1.215,0.424,1.703-0.064l0,0c0.488-0.488,0.518-1.25,0.064-1.702l-4.031-4.032
		c-0.451-0.451-1.215-0.423-1.701,0.065l0,0c-0.488,0.487-0.518,1.25-0.066,1.702L16.53,18.232z"/>
</g>
</svg>
